<?xml version="1.0" encoding="UTF-8"?>
<svg version="1.1" xmlns="http://www.w3.org/2000/svg" width="100" height="100">
<path d="M0 0 C1.13457642 -0.00315216 2.26915283 -0.00630432 3.43811035 -0.009552 C5.28342346 -0.00651566 5.28342346 -0.00651566 7.16601562 -0.00341797 C8.42361694 -0.00437469 9.68121826 -0.00533142 10.97692871 -0.00631714 C13.6400901 -0.00699869 16.3031602 -0.00564539 18.96630859 -0.00097656 C22.38289814 0.00472064 25.79940913 0.00144067 29.21599579 -0.00454903 C32.47017191 -0.00902772 35.72433848 -0.0058936 38.97851562 -0.00341797 C40.20872437 -0.0054422 41.43893311 -0.00746643 42.7064209 -0.009552 C44.40828552 -0.00482376 44.40828552 -0.00482376 46.14453125 0 C47.14665649 0.00079559 48.14878174 0.00159119 49.18127441 0.00241089 C51.57226562 0.12939453 51.57226562 0.12939453 53.57226562 1.12939453 C53.59540326 11.13440143 53.61318799 21.13940199 53.6240778 31.14443016 C53.6293035 35.7898185 53.63639551 40.43518858 53.64770508 45.08056641 C53.65854501 49.56092128 53.66454482 54.04125855 53.66714287 58.52162552 C53.66899511 60.23370262 53.67261191 61.94577872 53.67799568 63.65784836 C53.68522077 66.04991512 53.68625594 68.44190851 53.68579102 70.83398438 C53.68938629 71.54680069 53.69298157 72.259617 53.69668579 72.99403381 C53.68631779 77.90129021 53.68631779 77.90129021 52.57226562 80.12939453 C49.42153125 81.26222996 46.39170669 81.25054004 43.06933594 81.24291992 C41.9684967 81.24284439 40.86765747 81.24276886 39.73345947 81.24269104 C38.55104675 81.23752975 37.36863403 81.23236847 36.15039062 81.22705078 C34.93526794 81.22563583 33.72014526 81.22422089 32.46820068 81.22276306 C28.58619732 81.21716441 24.70425157 81.20461213 20.82226562 81.19189453 C18.19075604 81.18687936 15.55924555 81.18231648 12.92773438 81.17822266 C6.47589179 81.16719542 0.02408282 81.15045861 -6.42773438 81.12939453 C-7.32059433 63.09890469 -7.55373686 45.11717577 -7.49023438 27.06689453 C-7.48520011 24.53108814 -7.48064067 21.99528076 -7.4765625 19.45947266 C-7.46573066 13.34942442 -7.44915089 7.23941439 -7.42773438 1.12939453 C-4.82277265 -0.17308633 -2.91696885 0.0023158 0 0 Z M-2.42773438 5.12939453 C-2.42773438 11.72939453 -2.42773438 18.32939453 -2.42773438 25.12939453 C-1.10773437 24.79939453 0.21226563 24.46939453 1.57226562 24.12939453 C1.57226562 25.11939453 1.57226562 26.10939453 1.57226562 27.12939453 C0.25226562 27.45939453 -1.06773438 27.78939453 -2.42773438 28.12939453 C-2.42773438 33.07939453 -2.42773438 38.02939453 -2.42773438 43.12939453 C-0.44773437 42.63439453 -0.44773437 42.63439453 1.57226562 42.12939453 C1.57226562 43.11939453 1.57226562 44.10939453 1.57226562 45.12939453 C0.08726563 45.62439453 0.08726563 45.62439453 -1.42773438 46.12939453 C-0.76773437 46.45939453 -0.10773437 46.78939453 0.57226562 47.12939453 C-0.1625 47.66886719 -0.1625 47.66886719 -0.91210938 48.21923828 C-3.12512875 51.00832713 -2.75610286 53.18490498 -2.67773438 56.69189453 C-2.66226562 57.84818359 -2.64679687 59.00447266 -2.63085938 60.19580078 C-2.62117211 63.06282096 -2.62117211 63.06282096 -1.42773438 65.12939453 C-0.43773437 65.12939453 0.55226563 65.12939453 1.57226562 65.12939453 C0.57226562 68.12939453 0.57226562 68.12939453 -1.42773438 69.12939453 C-1.09773438 70.11939453 -0.76773437 71.10939453 -0.42773438 72.12939453 C1.05726562 71.63439453 1.05726562 71.63439453 2.57226562 71.12939453 C1.57448983 74.12272192 0.82006312 75.07705769 -1.42773438 77.12939453 C-0.10773437 77.12939453 1.21226563 77.12939453 2.57226562 77.12939453 C2.90226562 75.80939453 3.23226563 74.48939453 3.57226562 73.12939453 C4.56226563 73.12939453 5.55226563 73.12939453 6.57226562 73.12939453 C6.57226562 74.11939453 6.57226562 75.10939453 6.57226562 76.12939453 C7.89226563 76.12939453 9.21226563 76.12939453 10.57226562 76.12939453 C10.57226562 75.13939453 10.57226562 74.14939453 10.57226562 73.12939453 C11.56226563 73.12939453 12.55226563 73.12939453 13.57226562 73.12939453 C13.57226562 74.11939453 13.57226562 75.10939453 13.57226562 76.12939453 C14.89226563 76.12939453 16.21226563 76.12939453 17.57226562 76.12939453 C17.90226562 74.80939453 18.23226562 73.48939453 18.57226562 72.12939453 C19.56226562 72.12939453 20.55226563 72.12939453 21.57226562 72.12939453 C21.24226563 73.44939453 20.91226563 74.76939453 20.57226562 76.12939453 C24.28963204 76.47840011 24.28963204 76.47840011 27.38476562 74.62939453 C27.77664062 74.13439453 28.16851562 73.63939453 28.57226562 73.12939453 C28.57226562 74.11939453 28.57226562 75.10939453 28.57226562 76.12939453 C29.89226563 76.12939453 31.21226563 76.12939453 32.57226562 76.12939453 C32.57226562 75.13939453 32.57226562 74.14939453 32.57226562 73.12939453 C33.56226563 73.12939453 34.55226562 73.12939453 35.57226562 73.12939453 C35.57226562 74.11939453 35.57226562 75.10939453 35.57226562 76.12939453 C36.23226562 76.12939453 36.89226562 76.12939453 37.57226562 76.12939453 C38.56226562 74.64439453 38.56226562 74.64439453 39.57226562 73.12939453 C40.56226563 72.79939453 41.55226562 72.46939453 42.57226562 72.12939453 C42.07726562 74.10939453 42.07726562 74.10939453 41.57226562 76.12939453 C43.88226563 76.12939453 46.19226563 76.12939453 48.57226562 76.12939453 C48.64813473 68.61806688 48.70078887 61.10683749 48.73706055 53.59521484 C48.75217632 51.03821114 48.77266928 48.48123347 48.79858398 45.92431641 C48.83484424 42.25563136 48.85196398 38.58728813 48.86523438 34.91845703 C48.88071823 33.7694693 48.89620209 32.62048157 48.91215515 31.43667603 C48.91249504 29.84525284 48.91249504 29.84525284 48.9128418 28.22167969 C48.91950363 27.2845816 48.92616547 26.34748352 48.93302917 25.38198853 C48.75445122 24.2669545 48.75445122 24.2669545 48.57226562 23.12939453 C47.58226562 22.46939453 46.59226563 21.80939453 45.57226562 21.12939453 C46.56226563 20.46939453 47.55226562 19.80939453 48.57226562 19.12939453 C47.91226563 19.12939453 47.25226563 19.12939453 46.57226562 19.12939453 C46.57226562 18.13939453 46.57226562 17.14939453 46.57226562 16.12939453 C47.23226562 16.12939453 47.89226562 16.12939453 48.57226562 16.12939453 C48.57226562 12.49939453 48.57226562 8.86939453 48.57226562 5.12939453 C31.74226563 5.12939453 14.91226562 5.12939453 -2.42773438 5.12939453 Z " fill="#000000" transform="translate(27.427734375,10.87060546875)"/>
<path d="M0 0 C1.91015625 0.23046875 1.91015625 0.23046875 3.91015625 2.23046875 C5.27185838 9.26592974 5.27185838 9.26592974 3.97265625 12.73046875 C3.62203125 13.22546875 3.27140625 13.72046875 2.91015625 14.23046875 C4.23015625 14.89046875 5.55015625 15.55046875 6.91015625 16.23046875 C6.58015625 18.21046875 6.25015625 20.19046875 5.91015625 22.23046875 C3.09759344 22.25731187 0.28528384 22.27723063 -2.52734375 22.29296875 C-3.32978516 22.30134766 -4.13222656 22.30972656 -4.95898438 22.31835938 C-7.00279596 22.32698305 -9.04668277 22.28275025 -11.08984375 22.23046875 C-12.08984375 21.23046875 -12.08984375 21.23046875 -12.15234375 18.66796875 C-12.13171875 17.86359375 -12.11109375 17.05921875 -12.08984375 16.23046875 C-10.76984375 15.57046875 -9.44984375 14.91046875 -8.08984375 14.23046875 C-8.39921875 12.40515625 -8.39921875 12.40515625 -8.71484375 10.54296875 C-9.18276685 6.87757111 -8.89672965 4.5430929 -7.08984375 1.23046875 C-5.19495423 -0.66442077 -2.51845229 0.05027763 0 0 Z M-4.08984375 3.23046875 C-5.91644572 7.35195218 -5.91644572 7.35195218 -5.21484375 11.60546875 C-4.84359375 12.14171875 -4.47234375 12.67796875 -4.08984375 13.23046875 C-2.76984375 12.90046875 -1.44984375 12.57046875 -0.08984375 12.23046875 C0.24015625 9.59046875 0.57015625 6.95046875 0.91015625 4.23046875 C-0.73984375 3.90046875 -2.38984375 3.57046875 -4.08984375 3.23046875 Z M-9.08984375 19.23046875 C-5.12984375 19.23046875 -1.16984375 19.23046875 2.91015625 19.23046875 C0.31839878 16.04734762 0.31839878 16.04734762 -2.52734375 15.85546875 C-5.56908881 16.09215537 -5.56908881 16.09215537 -9.08984375 19.23046875 Z " fill="#000000" transform="translate(44.08984375,23.76953125)"/>
<path d="M0 0 C7.92 0 15.84 0 24 0 C24.33 0.99 24.66 1.98 25 3 C16.75 3 8.5 3 0 3 C0 2.01 0 1.02 0 0 Z " fill="#000000" transform="translate(32,59)"/>
<path d="M0 0 C7.59 0 15.18 0 23 0 C23 0.99 23 1.98 23 3 C15.41 3 7.82 3 0 3 C0 2.01 0 1.02 0 0 Z " fill="#000000" transform="translate(32,67)"/>
<path d="M0 0 C7.26 0 14.52 0 22 0 C22.33 0.99 22.66 1.98 23 3 C15.41 3 7.82 3 0 3 C0 2.01 0 1.02 0 0 Z " fill="#000000" transform="translate(32,51)"/>
<path d="M0 0 C6.27 0 12.54 0 19 0 C19 0.99 19 1.98 19 3 C12.73 3 6.46 3 0 3 C0 2.01 0 1.02 0 0 Z " fill="#000000" transform="translate(52,26)"/>
<path d="M0 0 C8.58 0 17.16 0 26 0 C26 0.66 26 1.32 26 2 C17.42 2 8.84 2 0 2 C0 1.34 0 0.68 0 0 Z " fill="#000000" transform="translate(31,75)"/>
<path d="M0 0 C5.28 0 10.56 0 16 0 C16 0.99 16 1.98 16 3 C10.72 3 5.44 3 0 3 C0 2.01 0 1.02 0 0 Z " fill="#000000" transform="translate(53,37)"/>
<path d="M0 0 C5.28 0 10.56 0 16 0 C16 0.99 16 1.98 16 3 C10.72 3 5.44 3 0 3 C0 2.01 0 1.02 0 0 Z " fill="#000000" transform="translate(53,31)"/>
<path d="M0 0 C3.63 0 7.26 0 11 0 C11 0.99 11 1.98 11 3 C7.37 3 3.74 3 0 3 C0 2.01 0 1.02 0 0 Z " fill="#000000" transform="translate(58,51)"/>
<path d="M0 0 C3.3 0 6.6 0 10 0 C10 0.99 10 1.98 10 3 C6.7 3 3.4 3 0 3 C0 2.01 0 1.02 0 0 Z " fill="#000000" transform="translate(60,67)"/>
<path d="M0 0 C3.3 0 6.6 0 10 0 C10 0.99 10 1.98 10 3 C6.7 3 3.4 3 0 3 C0 2.01 0 1.02 0 0 Z " fill="#000000" transform="translate(59,59)"/>
<path d="M0 0 C3.3 0 6.6 0 10 0 C10 0.66 10 1.32 10 2 C6.7 2 3.4 2 0 2 C0 1.34 0 0.68 0 0 Z " fill="#000000" transform="translate(60,75)"/>
<path d="M0 0 C0.66 0 1.32 0 2 0 C2 0.99 2 1.98 2 3 C1.34 3 0.68 3 0 3 C0 2.01 0 1.02 0 0 Z " fill="#000000" transform="translate(29,19)"/>
<path d="M0 0 C0.66 0 1.32 0 2 0 C2 0.66 2 1.32 2 2 C1.34 2 0.68 2 0 2 C0 1.34 0 0.68 0 0 Z " fill="#000000" transform="translate(73,68)"/>
<path d="M0 0 C0.66 0 1.32 0 2 0 C2 0.66 2 1.32 2 2 C1.34 2 0.68 2 0 2 C0 1.34 0 0.68 0 0 Z " fill="#000000" transform="translate(27,28)"/>
</svg>
